<svg width="150" height="24" viewBox="0 0 150 24" fill="none" xmlns="http://www.w3.org/2000/svg">
<g clip-path="url(#clip0_3_15)">
<path d="M6.64839 9.53201L0.242905 14.657V15.725L6.33871 12.735L6.64839 9.53201ZM14.3981 16.152L10.9877 23.732L9.95516 23.946L11.401 17.113L14.3981 16.152Z" fill="#231F20"/>
<path d="M6.33871 18.18C6.13161 17.22 5.92549 10.066 7.37226 6.33C8.61097 3.02 11.1948 0.349999 14.191 0.0299988C15.7413 -0.0770012 17.6003 0.136999 19.3568 1.738C21.2168 3.233 21.7336 4.835 21.9406 6.436C22.3539 9.639 20.2868 12.736 17.4977 14.657C14.2945 16.899 6.75194 18.287 6.54581 18.287C6.44226 18.287 6.33871 18.287 6.33871 18.18Z" fill="#FFD300"/>
<path d="M15.2245 10.92C17.1646 10.92 18.7374 9.2948 18.7374 7.29C18.7374 5.28521 17.1646 3.66 15.2245 3.66C13.2844 3.66 11.7116 5.28521 11.7116 7.29C11.7116 9.2948 13.2844 10.92 15.2245 10.92Z" fill="#231F20"/>
<path d="M15.2245 9.32599C16.289 9.32599 17.1532 8.43399 17.1532 7.33299C17.1532 6.23199 16.29 5.33899 15.2245 5.33899C14.159 5.33899 13.2958 6.23199 13.2958 7.33299C13.2958 8.43299 14.159 9.32599 15.2245 9.32599Z" fill="white"/>
<path d="M34.3384 20.316C32.2723 20.316 30.3087 19.568 28.7594 18.607L29.7929 15.831C31.2387 16.792 32.8926 17.433 34.4419 17.433C36.5081 17.433 37.3355 16.365 37.3355 15.298C37.3355 14.123 36.7152 13.376 33.6155 12.201C30.3087 10.921 29.1726 9.31899 29.1726 7.18299C29.1726 4.51399 31.2387 2.05899 34.8552 2.05899C36.7152 2.05899 38.4716 2.59299 39.6077 3.23299L38.6787 6.00899C37.6452 5.47499 36.1984 4.83499 34.8561 4.83499C33.0987 4.83499 32.2723 5.90199 32.2723 7.07699C32.2723 8.25099 33.2013 8.89199 35.5781 9.85299C39.4006 11.347 40.4342 12.949 40.4342 15.298C40.5377 18.394 38.1619 20.316 34.3384 20.316ZM49.6297 14.87V19.995H46.6336V2.37999H51.9029C56.4494 2.37999 58.7226 4.94199 58.7226 8.67999C58.7226 12.416 56.4484 14.978 51.2836 14.978H49.6297V14.872V14.87ZM49.6297 5.26199V12.202H51.5932C54.3832 12.202 55.4158 10.6 55.4158 8.67799C55.4158 6.75599 54.4868 5.26199 51.5932 5.26199H49.6297ZM64.3016 2.37899H67.2977V12.735C67.2977 16.152 68.7445 17.54 71.3274 17.54C73.9113 17.54 75.4597 16.152 75.4597 12.735V2.37999H78.4568V12.736C78.4568 17.968 75.5632 20.316 71.3274 20.316C67.0916 20.316 64.3016 17.968 64.3016 12.736V2.37999V2.37899ZM83.6226 2.37899H97.9839V5.26199H92.4048V19.995H89.4087V5.26199H83.7261V2.37899H83.6226ZM103.151 2.27199H104.081L114.619 13.589V2.37899H117.615V20.102H116.789L106.147 9.10499V20.102H103.151V2.27199ZM125.055 2.37899H128.051V19.995H125.055V2.37899ZM135.49 2.37899H138.486V11.027L145.719 2.37899H149.334L141.482 11.668L149.748 19.995H146.028L138.486 12.415V19.995H135.49V2.37899Z" fill="#231F20"/>
</g>
<defs>
<clipPath id="clip0_3_15">
<rect width="150" height="24" fill="white"/>
</clipPath>
</defs>
</svg>
